<?xml version="1.0" standalone="no"?>
<!DOCTYPE svg PUBLIC "-//W3C//DTD SVG 20010904//EN"
 "http://www.w3.org/TR/2001/REC-SVG-20010904/DTD/svg10.dtd">
<svg version="1.0" xmlns="http://www.w3.org/2000/svg"
 width="512.000000pt" height="512.000000pt" viewBox="0 0 512.000000 512.000000"
 preserveAspectRatio="xMidYMid meet">

<g transform="translate(0.000000,512.000000) scale(0.100000,-0.100000)"
fill="#EDEDED" stroke="none">
<path d="M1490 5109 c-14 -6 -36 -20 -48 -32 -55 -51 -52 7 -52 -1135 l0
-1059 23 -34 c12 -19 42 -44 67 -57 l45 -22 1045 2 c1034 3 1045 3 1080 24 19
11 45 35 57 54 l23 33 0 1062 0 1062 -22 33 c-13 18 -36 43 -51 54 -28 20 -40
21 -457 24 l-429 3 -3 -359 -3 -359 -27 -39 c-15 -21 -44 -50 -65 -64 -31 -21
-48 -25 -113 -25 -65 0 -82 4 -113 25 -21 14 -50 43 -65 64 l-27 39 -3 359 -3
358 -417 -1 c-252 0 -427 -4 -442 -10z"/>
<path d="M119 2340 c-45 -13 -79 -42 -100 -81 -19 -38 -19 -64 -17 -1098 3
-1052 3 -1060 24 -1087 11 -15 33 -37 48 -48 27 -21 35 -21 1087 -24 1039 -2
1060 -2 1098 18 21 10 50 36 62 57 l24 38 3 1025 c2 564 0 1044 -3 1068 -8 55
-62 117 -113 132 -22 6 -198 10 -439 10 l-403 0 0 -326 c0 -380 -3 -398 -70
-465 -105 -105 -268 -80 -334 52 l-26 53 0 343 0 343 -407 -1 c-225 0 -420 -4
-434 -9z"/>
<path d="M2884 2339 c-47 -13 -101 -79 -109 -131 -3 -24 -5 -504 -3 -1068 l3
-1025 22 -35 c12 -20 40 -46 62 -58 l39 -22 1060 2 c1053 3 1061 3 1088 24 15
11 37 33 48 48 21 27 21 35 24 1087 2 1039 2 1060 -18 1098 -10 21 -36 50 -57
62 l-38 24 -422 3 -423 3 0 -344 0 -343 -26 -53 c-66 -132 -229 -157 -334 -52
-67 67 -70 85 -70 465 l0 326 -407 -1 c-225 0 -422 -5 -439 -10z"/>
</g>
</svg>
