<?xml version="1.0" standalone="no"?>
<!DOCTYPE svg PUBLIC "-//W3C//DTD SVG 20010904//EN"
 "http://www.w3.org/TR/2001/REC-SVG-20010904/DTD/svg10.dtd">
<svg version="1.0" xmlns="http://www.w3.org/2000/svg"
 width="512.000000pt" height="512.000000pt" viewBox="0 0 512.000000 512.000000"
 preserveAspectRatio="xMidYMid meet">

<g transform="translate(0.000000,512.000000) scale(0.100000,-0.100000)"
fill="#EDEDED" stroke="none">
<path d="M442 5100 c-106 -28 -187 -75 -267 -155 -81 -81 -127 -161 -155 -271
-20 -76 -20 -118 -20 -2114 0 -1996 0 -2038 20 -2114 28 -110 74 -190 155
-271 81 -81 161 -127 271 -155 75 -19 115 -20 1258 -20 1307 0 1252 -2 1387
66 97 48 211 162 257 254 63 129 62 113 62 892 l0 708 -562 0 c-635 0 -646 1
-788 71 -66 33 -102 60 -165 123 -127 128 -185 267 -185 446 0 179 58 318 185
446 63 63 99 90 165 123 142 70 153 71 788 71 l562 0 0 708 c0 779 1 763 -62
892 -45 91 -169 213 -262 258 -131 64 -84 62 -1386 61 -1134 0 -1188 -1 -1258
-19z"/>
<path d="M3993 3616 c-62 -20 -98 -51 -127 -108 l-26 -52 0 -343 0 -343 -770
0 c-673 0 -775 -2 -808 -15 -169 -71 -169 -319 0 -390 33 -13 135 -15 808 -15
l770 0 0 -343 0 -343 26 -53 c44 -88 140 -133 238 -111 49 12 65 26 515 474
311 310 469 474 482 501 24 51 24 119 0 170 -13 27 -170 191 -482 501 -433
431 -467 462 -511 473 -56 13 -62 13 -115 -3z"/>
</g>
</svg>
