<?xml version="1.0" standalone="no"?>
<!DOCTYPE svg PUBLIC "-//W3C//DTD SVG 20010904//EN"
 "http://www.w3.org/TR/2001/REC-SVG-20010904/DTD/svg10.dtd">
<svg version="1.0" xmlns="http://www.w3.org/2000/svg"
 width="512.000000pt" height="512.000000pt" viewBox="0 0 512.000000 512.000000"
 preserveAspectRatio="xMidYMid meet">

<g transform="translate(0.000000,512.000000) scale(0.100000,-0.100000)"
fill="#EDEDED" stroke="none">
<path d="M1606 4260 c-41 -13 -94 -68 -106 -110 -5 -19 -10 -96 -10 -171 l0
-137 128 -4 c121 -3 133 -6 195 -36 108 -53 185 -154 207 -271 6 -32 10 -244
10 -512 l0 -459 480 0 480 0 -2 798 -3 799 -28 36 c-54 71 -57 72 -292 72
l-210 0 -5 -325 c-5 -353 -5 -350 -65 -395 -71 -55 -172 -36 -225 42 l-25 36
-3 324 -3 323 -247 -1 c-136 0 -260 -5 -276 -9z"/>
<path d="M520 3608 c-25 -13 -55 -38 -67 -57 l-23 -34 0 -478 0 -479 690 0
690 0 0 479 0 478 -23 33 c-46 69 -68 75 -299 78 l-208 3 0 -326 c0 -364 -1
-372 -66 -421 -31 -24 -47 -29 -95 -29 -62 0 -94 17 -133 69 -20 26 -21 42
-24 367 l-3 339 -197 0 c-185 0 -201 -1 -242 -22z"/>
<path d="M3400 3608 c-25 -13 -55 -38 -67 -57 l-23 -34 1 -1091 c1 -647 5
-1073 10 -1047 43 218 180 414 372 530 135 82 257 115 422 114 363 -2 672
-244 766 -598 22 -85 30 -248 16 -317 l-8 -38 59 0 c65 0 108 21 146 73 21 28
21 35 24 775 3 796 0 852 -45 996 -120 385 -456 660 -858 706 -49 5 -243 10
-430 10 -334 0 -342 0 -385 -22z"/>
<path d="M119 2341 c-43 -14 -74 -39 -97 -80 l-23 -40 3 -525 c3 -514 3 -525
24 -553 38 -52 81 -73 146 -73 l59 0 -8 38 c-4 20 -7 82 -6 137 5 356 248 662
598 756 101 27 278 30 377 6 285 -69 500 -273 590 -557 20 -65 23 -95 23 -228
l0 -152 583 0 c645 0 628 -2 675 64 l22 31 3 536 2 535 -22 34 c-13 19 -39 43
-58 54 -35 21 -42 21 -1450 23 -778 1 -1427 -2 -1441 -6z"/>
<path d="M872 1796 c-155 -38 -308 -159 -377 -298 -48 -98 -65 -167 -65 -268
0 -168 52 -293 171 -413 152 -153 350 -209 553 -157 110 28 190 74 271 155
140 140 199 328 164 521 -39 213 -219 404 -434 459 -71 18 -209 18 -283 1z"/>
<path d="M3960 1794 c-162 -43 -309 -165 -379 -315 -64 -137 -76 -256 -41
-393 28 -110 74 -190 155 -271 235 -235 591 -233 825 4 116 117 170 245 170
403 0 106 -15 169 -63 267 -73 150 -219 268 -378 306 -80 18 -217 18 -289 -1z"/>
</g>
</svg>
